<svg width="40" height="40" viewBox="0 0 40 40" fill="none" xmlns="http://www.w3.org/2000/svg">
<path d="M10.143 39.8585C7.76414 39.7503 6.4719 39.3545 5.61239 39.0192C4.4735 38.5758 3.66154 38.048 2.80679 37.1944C1.95203 36.3408 1.42301 35.5289 0.98196 34.39C0.646714 33.5305 0.25084 32.2382 0.142658 29.8594C0.0237763 27.288 0 26.5165 0 20.0018C0 13.4871 0.0261539 12.7167 0.141469 10.143C0.249651 7.76414 0.647903 6.47428 0.980771 5.61239C1.4242 4.4735 1.95322 3.66154 2.8056 2.8056C3.65917 1.95203 4.47113 1.42182 5.6112 0.980771C6.47071 0.645526 7.76295 0.249651 10.1418 0.141469C12.7144 0.0237763 13.4871 0 19.9994 0C26.5141 0 27.2845 0.0261539 29.8582 0.141469C32.237 0.249651 33.5269 0.647903 34.3888 0.980771C35.5277 1.42182 36.3396 1.95203 37.1944 2.8056C38.0492 3.65917 38.5758 4.47232 39.0192 5.6112C39.3545 6.47071 39.7503 7.76295 39.8585 10.1418C39.9762 12.7155 40 13.4859 40 20.0006C40 26.5129 39.9762 27.2856 39.8585 29.8594C39.7503 32.2382 39.3521 33.5305 39.0192 34.39C38.5758 35.5289 38.048 36.3408 37.1944 37.1944C36.3408 38.048 35.5277 38.5758 34.3888 39.0192C33.5293 39.3545 32.237 39.7503 29.8582 39.8585C27.2868 39.9762 26.5141 40 19.9994 40C13.4871 40 12.7144 39.9774 10.143 39.8585" fill="url(#paint0_radial)"/>
<path d="M10.143 39.8585C7.76414 39.7503 6.4719 39.3545 5.61239 39.0192C4.4735 38.5758 3.66154 38.048 2.80679 37.1944C1.95203 36.3408 1.42301 35.5289 0.98196 34.39C0.646714 33.5305 0.25084 32.2382 0.142658 29.8594C0.0237763 27.288 0 26.5165 0 20.0018C0 13.4871 0.0261539 12.7167 0.141469 10.143C0.249651 7.76414 0.647903 6.47428 0.980771 5.61239C1.4242 4.4735 1.95322 3.66154 2.8056 2.8056C3.65917 1.95203 4.47113 1.42182 5.6112 0.980771C6.47071 0.645526 7.76295 0.249651 10.1418 0.141469C12.7144 0.0237763 13.4871 0 19.9994 0C26.5141 0 27.2845 0.0261539 29.8582 0.141469C32.237 0.249651 33.5269 0.647903 34.3888 0.980771C35.5277 1.42182 36.3396 1.95203 37.1944 2.8056C38.0492 3.65917 38.5758 4.47232 39.0192 5.6112C39.3545 6.47071 39.7503 7.76295 39.8585 10.1418C39.9762 12.7155 40 13.4859 40 20.0006C40 26.5129 39.9762 27.2856 39.8585 29.8594C39.7503 32.2382 39.3521 33.5305 39.0192 34.39C38.5758 35.5289 38.048 36.3408 37.1944 37.1944C36.3408 38.048 35.5277 38.5758 34.3888 39.0192C33.5293 39.3545 32.237 39.7503 29.8582 39.8585C27.2868 39.9762 26.5141 40 19.9994 40C13.4871 40 12.7144 39.9774 10.143 39.8585" fill="url(#paint1_radial)"/>
<path d="M15.0892 20.0847C15.0892 17.3492 17.3062 15.131 20.0418 15.131C22.7774 15.131 24.9956 17.3492 24.9956 20.0847C24.9956 22.8203 22.7774 25.0385 20.0418 25.0385C17.3062 25.0385 15.0892 22.8203 15.0892 20.0847V20.0847ZM12.4113 20.0847C12.4113 24.2991 15.8275 27.7152 20.0418 27.7152C24.2561 27.7152 27.6723 24.2991 27.6723 20.0847C27.6723 15.8704 24.2561 12.4542 20.0418 12.4542C15.8275 12.4542 12.4114 15.8702 12.4114 20.0847H12.4113ZM26.1913 12.1517C26.1911 12.5044 26.2956 12.8492 26.4914 13.1425C26.6872 13.4358 26.9656 13.6645 27.2914 13.7996C27.6172 13.9347 27.9757 13.9702 28.3217 13.9015C28.6676 13.8328 28.9854 13.6631 29.2349 13.4138C29.4844 13.1645 29.6544 12.8469 29.7233 12.501C29.7923 12.1551 29.7571 11.7965 29.6222 11.4707C29.4874 11.1448 29.259 10.8662 28.9658 10.6701C28.6726 10.474 28.3279 10.3693 27.9752 10.3692H27.9745C27.5017 10.3694 27.0484 10.5573 26.7141 10.8915C26.3797 11.2257 26.1917 11.6789 26.1913 12.1517V12.1517ZM14.0383 32.1806C12.5895 32.1147 11.802 31.8733 11.2787 31.6694C10.5849 31.3993 10.0899 31.0777 9.56943 30.5579C9.04897 30.0382 8.7268 29.5436 8.45789 28.8498C8.25389 28.3267 8.01256 27.539 7.9467 26.0902C7.87466 24.5239 7.86027 24.0533 7.86027 20.085C7.86027 16.1166 7.87585 15.6474 7.9467 14.0797C8.01268 12.6309 8.25579 11.8447 8.45789 11.3201C8.72799 10.6263 9.04968 10.1313 9.56943 9.61084C10.0892 9.09038 10.5837 8.76821 11.2787 8.4993C11.8018 8.2953 12.5895 8.05398 14.0383 7.98812C15.6047 7.91607 16.0752 7.90169 20.0418 7.90169C24.0084 7.90169 24.4794 7.91703 26.0471 7.98835C27.4959 8.05433 28.282 8.29744 28.8067 8.49954C29.5005 8.76845 29.9955 9.09133 30.5159 9.61108C31.0364 10.1308 31.3574 10.6266 31.6275 11.3203C31.8315 11.8434 32.0728 12.6311 32.1387 14.0799C32.2107 15.6476 32.2251 16.1168 32.2251 20.0852C32.2251 24.0536 32.2107 24.5228 32.1387 26.0905C32.0727 27.5393 31.8302 28.3267 31.6275 28.8501C31.3574 29.5439 31.0357 30.0389 30.5159 30.5581C29.9962 31.0774 29.5005 31.3996 28.8067 31.6697C28.2836 31.8737 27.4959 32.115 26.0471 32.1809C24.4807 32.2529 24.0102 32.2673 20.0418 32.2673C16.0734 32.2673 15.6042 32.2529 14.0383 32.1809V32.1806ZM13.9152 5.3146C12.3333 5.38664 11.2523 5.63748 10.3083 6.00483C9.33119 6.38417 8.50294 6.8931 7.67589 7.71885C6.84883 8.5446 6.34121 9.37296 5.96186 10.3512C5.59452 11.2959 5.34368 12.3763 5.27163 13.9582C5.1984 15.5426 5.18164 16.0492 5.18164 20.0847C5.18164 24.1203 5.1984 24.6268 5.27163 26.2113C5.34368 27.7933 5.59452 28.8736 5.96186 29.8182C6.34121 30.7953 6.84895 31.6252 7.67589 32.4506C8.50282 33.276 9.33 33.7842 10.3083 34.1646C11.2541 34.532 12.3333 34.7828 13.9152 34.8549C15.5005 34.9269 16.0062 34.9448 20.0418 34.9448C24.0773 34.9448 24.5839 34.9281 26.1683 34.8549C27.7504 34.7828 28.8307 34.532 29.7753 34.1646C30.7524 33.7842 31.5806 33.2764 32.4077 32.4506C33.2348 31.6249 33.7413 30.7953 34.1217 29.8182C34.4891 28.8736 34.7411 27.7932 34.8119 26.2113C34.884 24.6256 34.9008 24.1203 34.9008 20.0847C34.9008 16.0492 34.884 15.5426 34.8119 13.9582C34.7399 12.3761 34.4891 11.2953 34.1217 10.3512C33.7413 9.37415 33.2334 8.54591 32.4077 7.71885C31.5819 6.8918 30.7524 6.38417 29.7765 6.00483C28.8307 5.63748 27.7503 5.38546 26.1695 5.3146C24.5848 5.2422 24.0785 5.22461 20.0436 5.22461C16.0086 5.22461 15.5011 5.24137 13.9158 5.3146" fill="white"/>
<defs>
<radialGradient id="paint0_radial" cx="0" cy="0" r="1" gradientUnits="userSpaceOnUse" gradientTransform="translate(2.58876 39.1237) scale(50.7852)">
<stop offset="0.09" stop-color="#FA8F21"/>
<stop offset="0.78" stop-color="#D82D7E"/>
</radialGradient>
<radialGradient id="paint1_radial" cx="0" cy="0" r="1" gradientUnits="userSpaceOnUse" gradientTransform="translate(27.7066 37.8393) scale(44.6914)">
<stop offset="0.64" stop-color="#8C3AAA" stop-opacity="0"/>
<stop offset="1" stop-color="#8C3AAA"/>
</radialGradient>
</defs>
</svg>
