<svg width="40" height="40" viewBox="0 0 40 40" fill="none" xmlns="http://www.w3.org/2000/svg">
<path d="M39.4106 19.9445C39.4106 30.7 30.6884 39.4222 19.9329 39.4222C9.1773 39.4222 0.455078 30.7 0.455078 19.9445C0.455078 9.18899 9.1773 0.466797 19.9329 0.466797C30.6884 0.466797 39.4106 9.18899 39.4106 19.9445V19.9445Z" fill="#CE0000"/>
<path d="M18.3004 6.98886C12.8114 7.57775 7.34473 11.8 7.12251 17.8444C6.97807 21.5333 8.52252 24.3 12.2114 25.0777C12.6337 23.3333 12.7114 22.3889 12.7114 22.3889C12.7114 22.3889 11.0892 20.8333 10.9225 19.8444C9.56697 11.8889 20.5559 6.45553 26.3226 12.0111C30.3004 15.8666 27.6782 27.7222 21.2559 26.4889C15.1003 25.3111 24.2671 15.8777 19.3559 14.0222C15.367 12.5111 13.2448 18.6333 15.1337 21.6666C14.0226 26.8889 11.6336 31.8111 12.6003 38.3555C15.7448 36.1889 16.8003 32.0333 17.667 27.7C19.2448 28.6111 20.0893 29.5666 22.1004 29.7111C29.5226 30.2555 33.6671 22.6555 32.656 15.6333C31.7449 9.41108 25.2337 6.24441 18.3004 6.98886V6.98886Z" fill="white"/>
</svg>
