<svg width="40" height="40" viewBox="0 0 40 40" fill="none" xmlns="http://www.w3.org/2000/svg">
<g clip-path="url(#clip0)">
<path d="M20 40C31.0457 40 40 31.0457 40 20C40 8.9543 31.0457 0 20 0C8.9543 0 0 8.9543 0 20C0 31.0457 8.9543 40 20 40Z" fill="#2DAAE1"/>
<path d="M32.8242 12.0441C31.8808 12.4627 30.8676 12.7456 29.8022 12.8728C30.8895 12.2218 31.7224 11.1901 32.1157 9.96216C31.0829 10.5756 29.9526 11.0074 28.7738 11.239C27.8146 10.2165 26.4467 9.57812 24.9334 9.57812C22.0286 9.57812 19.6728 11.933 19.6728 14.8394C19.6728 15.2512 19.7192 15.653 19.8083 16.0387C15.4356 15.819 11.5588 13.7244 8.96392 10.5417C8.51082 11.319 8.25146 12.2227 8.25146 13.187C8.25146 15.0121 9.18042 16.6224 10.592 17.5657C9.75636 17.5398 8.93909 17.3143 8.20847 16.9079V16.9744C8.20847 19.5238 10.0218 21.6496 12.4288 22.133C11.9867 22.2542 11.5226 22.3175 11.0426 22.3175C10.7031 22.3175 10.3738 22.2854 10.0521 22.2248C10.7217 24.3144 12.6648 25.8354 14.9664 25.8784C13.1658 27.2899 10.8968 28.1314 8.43251 28.1314C8.00806 28.1314 7.58857 28.106 7.17676 28.0564C9.50552 29.5496 12.2705 30.4213 15.2419 30.4213C24.919 30.4213 30.2115 22.4043 30.2115 15.4518C30.2115 15.2235 30.2065 14.997 30.1955 14.7712C31.2266 14.0254 32.1168 13.1019 32.8242 12.0441V12.0441Z" fill="white"/>
</g>
<defs>
<clipPath id="clip0">
<rect width="40" height="40" fill="white"/>
</clipPath>
</defs>
</svg>
